<svg width="375" height="740" viewBox="0 0 375 740" fill="none" xmlns="http://www.w3.org/2000/svg">
<g opacity="0.05">
<path d="M-125.582 682.943H-114.86V672.226H-125.582V682.943Z" fill="#201D28"/>
<path d="M-114.652 693.868H-103.931V683.151H-114.652V693.868Z" fill="#302C3D"/>
<path d="M-104.005 704.511H-93.2833V693.794H-104.005V704.511Z" fill="#393644"/>
<path d="M-93.7229 715.154H-83.0014V704.437H-93.7229V715.154Z" fill="#43404B"/>
<path d="M-136.229 672.3H-125.508V661.583H-136.229V672.3Z" fill="#100F14"/>
<path d="M-146.877 661.657H-136.155V650.94H-146.877V661.657Z" fill="#010101"/>
<path d="M36.5204 313.493H47.2419V302.776H36.5204V313.493Z" fill="#201D28"/>
<path d="M47.1677 324.136H57.8891V313.419H47.1677V324.136Z" fill="#302C3D"/>
<path d="M57.8149 334.779H68.5364V324.062H57.8149V334.779Z" fill="#393644"/>
<path d="M68.0971 345.422H78.8186V334.705H68.0971V345.422Z" fill="#601E13"/>
<path d="M25.8728 302.85H36.5943V292.133H25.8728V302.85Z" fill="#100F14"/>
<path d="M14.9433 292.207H25.6648V281.49H14.9433V292.207Z" fill="#010101"/>
<path d="M214.635 167.38H225.357V156.663H214.635V167.38Z" fill="#201D28"/>
<path d="M225.282 178.305H236.004V167.588H225.282V178.305Z" fill="#302C3D"/>
<path d="M235.93 188.948H246.651V178.231H235.93V188.948Z" fill="#393644"/>
<path d="M246.212 199.591H256.933V188.874H246.212V199.591Z" fill="#43404B"/>
<path d="M203.705 156.737H214.427V146.02H203.705V156.737Z" fill="#100F14"/>
<path d="M193.058 146.094H203.78V135.377H193.058V146.094Z" fill="#010101"/>
<path d="M333.733 469.925H344.454V459.208H333.733V469.925Z" fill="#201D28"/>
<path d="M344.662 480.568H355.384V469.851H344.662V480.568Z" fill="#302C3D"/>
<path d="M355.31 491.211H366.031V480.494H355.31V491.211Z" fill="#393644"/>
<path d="M365.592 501.854H376.313V491.137H365.592V501.854Z" fill="#43404B"/>
<path d="M323.085 459.282H333.807V448.565H323.085V459.282Z" fill="#100F14"/>
<path d="M312.438 448.639H323.159V437.922H312.438V448.639Z" fill="#010101"/>
<path d="M178.225 337.826H188.946V327.109H178.225V337.826Z" fill="#201D28"/>
<path d="M188.872 348.469H199.594V337.752H188.872V348.469Z" fill="#302C3D"/>
<path d="M199.52 359.394H210.241V348.677H199.52V359.394Z" fill="#393644"/>
<path d="M210.084 370.037H220.805V359.32H210.084V370.037Z" fill="#43404B"/>
<path d="M167.577 327.183H178.299V316.466H167.577V327.183Z" fill="#100F14"/>
<path d="M156.93 316.54H167.651V305.823H156.93V316.54Z" fill="#010101"/>
<path d="M397.45 656.335H408.172V645.618H397.45V656.335Z" fill="#201D28"/>
<path d="M408.098 666.978H418.819V656.261H408.098V666.978Z" fill="#302C3D"/>
<path d="M418.745 677.621H429.467V666.904H418.745V677.621Z" fill="#393644"/>
<path d="M429.027 688.264H439.749V677.547H429.027V688.264Z" fill="#43404B"/>
<path d="M386.521 645.692H397.242V634.975H386.521V645.692Z" fill="#100F14"/>
<path d="M375.874 635.049H386.595V624.332H375.874V635.049Z" fill="#010101"/>
<path d="M278.37 676.036H289.091V665.318H278.37V676.036Z" fill="#201D28"/>
<path d="M289.017 686.679H299.739V675.961H289.017V686.679Z" fill="#302C3D"/>
<path d="M299.664 697.322H310.386V686.605H299.664V697.322Z" fill="#393644"/>
<path d="M310.228 707.965H320.95V697.247H310.228V707.965Z" fill="#43404B"/>
<path d="M267.722 665.393H278.444V654.676H267.722V665.393Z" fill="#100F14"/>
<path d="M257.075 654.467H267.796V643.75H257.075V654.467Z" fill="#010101"/>
<path d="M598.662 619.085H609.384V608.368H598.662V619.085Z" fill="#201D28"/>
<path d="M609.31 629.728H620.031V619.011H609.31V629.728Z" fill="#302C3D"/>
<path d="M619.957 640.371H630.678V629.654H619.957V640.371Z" fill="#393644"/>
<path d="M630.521 651.014H641.243V640.297H630.521V651.014Z" fill="#43404B"/>
<path d="M588.015 608.442H598.736V597.725H588.015V608.442Z" fill="#100F14"/>
<path d="M577.367 597.517H588.089V586.8H577.367V597.517Z" fill="#010101"/>
<path d="M496.865 625.992H507.586V615.275H496.865V625.992Z" fill="#201D28"/>
<path d="M507.512 636.917H518.233V626.2H507.512V636.917Z" fill="#302C3D"/>
<path d="M518.159 647.56H528.881V636.843H518.159V647.56Z" fill="#393644"/>
<path d="M528.441 658.203H539.163V647.486H528.441V658.203Z" fill="#601E13"/>
<path d="M486.217 615.349H496.939V604.632H486.217V615.349Z" fill="#100F14"/>
<path d="M475.57 604.706H486.291V593.989H475.57V604.706Z" fill="#010101"/>
<path d="M-344.675 46.6129H-333.953V35.8958H-344.675V46.6129Z" fill="#201D28"/>
<path d="M-334.028 57.2558H-323.306V46.5387H-334.028V57.2558Z" fill="#302C3D"/>
<path d="M-323.38 67.899H-312.659V57.1819H-323.38V67.899Z" fill="#393644"/>
<path d="M-313.098 78.542H-302.377V67.8249H-313.098V78.542Z" fill="#43404B"/>
<path d="M-355.322 35.97H-344.601V25.2529H-355.322V35.97Z" fill="#100F14"/>
<path d="M-366.252 25.3268H-355.531V14.6097H-366.252V25.3268Z" fill="#010101"/>
<path d="M461.036 73.2204H471.757V62.5033H461.036V73.2204Z" fill="#201D28"/>
<path d="M471.683 84.1456H482.404V73.4285H471.683V84.1456Z" fill="#302C3D"/>
<path d="M482.33 94.7885H493.052V84.0714H482.33V94.7885Z" fill="#393644"/>
<path d="M492.612 105.432H503.334V94.7146H492.612V105.432Z" fill="#601E13"/>
<path d="M450.388 62.5774H461.11V51.8603H450.388V62.5774Z" fill="#100F14"/>
<path d="M439.741 51.9345H450.462V41.2174H439.741V51.9345Z" fill="#010101"/>
<path d="M-218.385 340.101H-207.664V329.384H-218.385V340.101Z" fill="#201D28"/>
<path d="M-207.455 350.744H-196.734V340.027H-207.455V350.744Z" fill="#302C3D"/>
<path d="M-196.808 361.387H-186.087V350.669H-196.808V361.387Z" fill="#393644"/>
<path d="M-186.526 372.312H-175.805V361.595H-186.526V372.312Z" fill="#601E13"/>
<path d="M-229.032 329.457H-218.311V318.74H-229.032V329.457Z" fill="#100F14"/>
<path d="M-239.68 318.815H-228.958V308.097H-239.68V318.815Z" fill="#010101"/>
<path d="M-40.7189 643.824H-29.9974V633.107H-40.7189V643.824Z" fill="#201D28"/>
<path d="M-30.0714 654.467H-19.3499V643.75H-30.0714V654.467Z" fill="#302C3D"/>
<path d="M-19.4241 665.393H-8.70258V654.676H-19.4241V665.393Z" fill="#393644"/>
<path d="M-9.14218 676.036H1.57932V665.318H-9.14218V676.036Z" fill="#43404B"/>
<path d="M-51.6483 633.182H-40.9268V622.464H-51.6483V633.182Z" fill="#100F14"/>
<path d="M-62.2956 622.538H-51.5742V611.821H-62.2956V622.538Z" fill="#010101"/>
<path d="M57.9647 610.028H68.6862V599.31H57.9647V610.028Z" fill="#201D28"/>
<path d="M68.612 620.671H79.3336V609.954H68.612V620.671Z" fill="#302C3D"/>
<path d="M79.2594 631.314H89.9808V620.597H79.2594V631.314Z" fill="#393644"/>
<path d="M89.8237 642.239H100.545V631.522H89.8237V642.239Z" fill="#43404B"/>
<path d="M47.3172 599.385H58.0387V588.667H47.3172V599.385Z" fill="#100F14"/>
<path d="M36.6699 588.741H47.3914V578.024H36.6699V588.741Z" fill="#010101"/>
<path d="M461.335 369.929H472.056V359.212H461.335V369.929Z" fill="#201D28"/>
<path d="M472.264 380.572H482.986V369.855H472.264V380.572Z" fill="#302C3D"/>
<path d="M482.912 391.215H493.633V380.498H482.912V391.215Z" fill="#393644"/>
<path d="M493.194 401.858H503.915V391.141H493.194V401.858Z" fill="#43404B"/>
<path d="M450.687 359.286H461.409V348.569H450.687V359.286Z" fill="#100F14"/>
<path d="M440.04 348.643H450.762V337.926H440.04V348.643Z" fill="#010101"/>
<path d="M-46.0007 67.899H-35.2792V57.1819H-46.0007V67.899Z" fill="#201D28"/>
<path d="M-35.3534 78.542H-24.6319V67.8249H-35.3534V78.542Z" fill="#302C3D"/>
<path d="M-24.7058 89.4672H-13.9843V78.7501H-24.7058V89.4672Z" fill="#393644"/>
<path d="M-14.4239 100.11H-3.70239V89.393H-14.4239V100.11Z" fill="#43404B"/>
<path d="M-56.6479 57.2558H-45.9265V46.5387H-56.6479V57.2558Z" fill="#100F14"/>
<path d="M-67.2955 46.6129H-56.574V35.8958H-67.2955V46.6129Z" fill="#010101"/>
<path d="M510.967 477.115H521.689V466.398H510.967V477.115Z" fill="#201D28"/>
<path d="M521.896 487.758H532.618V477.04H521.896V487.758Z" fill="#302C3D"/>
<path d="M532.544 498.401H543.266V487.684H532.544V498.401Z" fill="#393644"/>
<path d="M542.826 509.044H553.547V498.327H542.826V509.044Z" fill="#43404B"/>
<path d="M500.32 466.471H511.041V455.754H500.32V466.471Z" fill="#100F14"/>
<path d="M489.673 455.828H500.394V445.111H489.673V455.828Z" fill="#010101"/>
<path d="M71.5782 248.687H85.6855V234.586H71.5782V248.687Z" fill="#201D28"/>
<path d="M85.9628 262.784H100.07V248.682H85.9628V262.784Z" fill="#302C3D"/>
<path d="M100.065 277.163H114.172V263.061H100.065V277.163Z" fill="#393644"/>
<path d="M113.869 291.259H127.976V277.158H113.869V291.259Z" fill="#43404B"/>
<path d="M57.4758 234.309H71.583V220.207H57.4758V234.309Z" fill="#100F14"/>
<path d="M43.091 220.212H57.1982V206.11H43.091V220.212Z" fill="#010101"/>
<path d="M64.2366 160.297H78.3438V146.196H64.2366V160.297Z" fill="#201D28"/>
<path d="M78.6211 174.676H92.7283V160.575H78.6211V174.676Z" fill="#302C3D"/>
<path d="M92.7235 188.773H106.831V174.671H92.7235V188.773Z" fill="#393644"/>
<path d="M106.527 203.151H120.634V189.05H106.527V203.151Z" fill="#601E13"/>
<path d="M50.1341 146.201H64.2413V132.099H50.1341V146.201Z" fill="#100F14"/>
<path d="M35.7495 131.822H49.8567V117.721H35.7495V131.822Z" fill="#010101"/>
<path d="M-2.18109 42.5768H11.9261V28.4753H-2.18109V42.5768Z" fill="#201D28"/>
<path d="M11.9213 56.9555H26.0285V42.854H11.9213V56.9555Z" fill="#302C3D"/>
<path d="M26.3059 71.0521H40.4131V56.9507H26.3059V71.0521Z" fill="#393644"/>
<path d="M40.1095 85.4308H54.2168V71.3294H40.1095V85.4308Z" fill="#43404B"/>
<path d="M-16.5657 28.4801H-2.45847V14.3787H-16.5657V28.4801Z" fill="#100F14"/>
<path d="M-30.6681 14.1014H-16.5609V0H-30.6681V14.1014Z" fill="#010101"/>
<path d="M-256.056 60.8159H-241.949V46.7144H-256.056V60.8159Z" fill="#201D28"/>
<path d="M-241.672 75.1946H-227.564V61.0931H-241.672V75.1946Z" fill="#302C3D"/>
<path d="M-227.287 89.2915H-213.18V75.19H-227.287V89.2915Z" fill="#393644"/>
<path d="M-213.484 103.67H-199.376V89.5687H-213.484V103.67Z" fill="#601E13"/>
<path d="M-270.159 46.7192H-256.051V32.6178H-270.159V46.7192Z" fill="#100F14"/>
<path d="M-284.543 32.3405H-270.436V18.2391H-284.543V32.3405Z" fill="#010101"/>
<path d="M-30.5186 216.841H-16.4114V202.74H-30.5186V216.841Z" fill="#201D28"/>
<path d="M-16.4162 231.22H-2.30899V217.119H-16.4162V231.22Z" fill="#302C3D"/>
<path d="M-2.03156 245.317H12.0757V231.215H-2.03156V245.317Z" fill="#393644"/>
<path d="M11.7721 259.695H25.8793V245.594H11.7721V259.695Z" fill="#43404B"/>
<path d="M-44.9031 202.745H-30.796V188.643H-44.9031V202.745Z" fill="#100F14"/>
<path d="M-59.0056 188.366H-44.8983V174.264H-59.0056V188.366Z" fill="#010101"/>
<path d="M-58.856 117.767H-44.7488V103.665H-58.856V117.767Z" fill="#201D28"/>
<path d="M-44.4715 132.146H-30.3642V118.044H-44.4715V132.146Z" fill="#302C3D"/>
<path d="M-30.3688 146.242H-16.2616V132.141H-30.3688V146.242Z" fill="#393644"/>
<path d="M-16.5657 160.621H-2.45847V146.519H-16.5657V160.621Z" fill="#43404B"/>
<path d="M-72.9585 103.67H-58.8513V89.5687H-72.9585V103.67Z" fill="#100F14"/>
<path d="M-87.343 89.2915H-73.2358V75.19H-87.343V89.2915Z" fill="#010101"/>
<path d="M-115.531 205.833H-101.424V191.731H-115.531V205.833Z" fill="#201D28"/>
<path d="M-101.146 220.212H-87.0392V206.11H-101.146V220.212Z" fill="#302C3D"/>
<path d="M-87.0439 234.309H-72.9367V220.207H-87.0439V234.309Z" fill="#393644"/>
<path d="M-72.9585 248.687H-58.8513V234.586H-72.9585V248.687Z" fill="#43404B"/>
<path d="M-129.634 191.736H-115.526V177.635H-129.634V191.736Z" fill="#100F14"/>
<path d="M-144.018 177.358H-129.911V163.256H-144.018V177.358Z" fill="#010101"/>
<path d="M-129.484 277.163H-115.377V263.061H-129.484V277.163Z" fill="#201D28"/>
<path d="M-115.099 291.259H-100.992V277.158H-115.099V291.259Z" fill="#302C3D"/>
<path d="M-100.997 305.638H-86.8896V291.536H-100.997V305.638Z" fill="#393644"/>
<path d="M-87.1938 319.735H-73.0865V305.633H-87.1938V319.735Z" fill="#601E13"/>
<path d="M-143.586 262.784H-129.479V248.682H-143.586V262.784Z" fill="#100F14"/>
<path d="M-157.971 248.687H-143.864V234.586H-157.971V248.687Z" fill="#010101"/>
<path d="M-313.03 252.506H-298.923V238.404H-313.03V252.506Z" fill="#201D28"/>
<path d="M-298.646 266.603H-284.539V252.501H-298.646V266.603Z" fill="#302C3D"/>
<path d="M-284.543 280.982H-270.436V266.88H-284.543V280.982Z" fill="#393644"/>
<path d="M-270.458 295.078H-256.35V280.977H-270.458V295.078Z" fill="#43404B"/>
<path d="M-327.133 238.127H-313.026V224.026H-327.133V238.127Z" fill="#100F14"/>
<path d="M-341.517 224.031H-327.41V209.929H-341.517V224.031Z" fill="#010101"/>
<path d="M-228.748 252.506H-214.641V238.404H-228.748V252.506Z" fill="#201D28"/>
<path d="M-214.364 266.603H-200.257V252.501H-214.364V266.603Z" fill="#302C3D"/>
<path d="M-200.261 280.982H-186.154V266.88H-200.261V280.982Z" fill="#393644"/>
<path d="M-186.458 295.078H-172.351V280.977H-186.458V295.078Z" fill="#43404B"/>
<path d="M-242.851 238.127H-228.744V224.026H-242.851V238.127Z" fill="#100F14"/>
<path d="M-257.236 224.031H-243.129V209.929H-257.236V224.031Z" fill="#010101"/>
<path d="M-348.278 124.441H-334.171V110.34H-348.278V124.441Z" fill="#201D28"/>
<path d="M-334.176 138.538H-320.068V124.437H-334.176V138.538Z" fill="#302C3D"/>
<path d="M-319.791 152.917H-305.684V138.815H-319.791V152.917Z" fill="#393644"/>
<path d="M-305.988 167.013H-291.881V152.912H-305.988V167.013Z" fill="#43404B"/>
<path d="M-362.662 110.063H-348.555V95.9612H-362.662V110.063Z" fill="#100F14"/>
<path d="M-376.765 95.966H-362.658V81.8645H-376.765V95.966Z" fill="#010101"/>
<path d="M-256.505 146.201H-242.397V132.099H-256.505V146.201Z" fill="#201D28"/>
<path d="M-242.402 160.297H-228.295V146.196H-242.402V160.297Z" fill="#302C3D"/>
<path d="M-228.018 174.676H-213.91V160.575H-228.018V174.676Z" fill="#393644"/>
<path d="M-214.214 188.773H-200.107V174.671H-214.214V188.773Z" fill="#43404B"/>
<path d="M-270.89 131.822H-256.782V117.721H-270.89V131.822Z" fill="#100F14"/>
<path d="M-284.992 117.725H-270.885V103.624H-284.992V117.725Z" fill="#010101"/>
<path d="M-150.779 96.4807H-136.671V82.3792H-150.779V96.4807Z" fill="#201D28"/>
<path d="M-136.676 110.577H-122.569V96.4759H-136.676V110.577Z" fill="#302C3D"/>
<path d="M-122.292 124.956H-108.184V110.855H-122.292V124.956Z" fill="#393644"/>
<path d="M-108.488 139.053H-94.3811V124.952H-108.488V139.053Z" fill="#43404B"/>
<path d="M-165.163 82.102H-151.056V68.0006H-165.163V82.102Z" fill="#100F14"/>
<path d="M-179.266 68.0054H-165.158V53.9039H-179.266V68.0054Z" fill="#010101"/>
<path d="M118.378 120.407H132.486V106.305H118.378V120.407Z" fill="#201D28"/>
<path d="M132.481 134.786H146.588V120.684H132.481V134.786Z" fill="#302C3D"/>
<path d="M146.865 148.882H160.973V134.781H146.865V148.882Z" fill="#393644"/>
<path d="M160.669 163.261H174.776V149.159H160.669V163.261Z" fill="#43404B"/>
<path d="M103.994 106.31H118.101V92.2085H103.994V106.31Z" fill="#100F14"/>
<path d="M89.8914 91.9313H103.999V77.8298H89.8914V91.9313Z" fill="#010101"/>
<path d="M563.74 238.127H577.847V224.026H563.74V238.127Z" fill="#201D28"/>
<path d="M577.842 252.506H591.95V238.404H577.842V252.506Z" fill="#302C3D"/>
<path d="M592.227 266.603H606.334V252.501H592.227V266.603Z" fill="#393644"/>
<path d="M606.03 280.982H620.138V266.88H606.03V280.982Z" fill="#43404B"/>
<path d="M549.355 224.031H563.463V209.929H549.355V224.031Z" fill="#100F14"/>
<path d="M535.253 209.652H549.36V195.55H535.253V209.652Z" fill="#010101"/>
<path d="M566.572 160.297H580.679V146.196H566.572V160.297Z" fill="#201D28"/>
<path d="M580.957 174.676H595.064V160.575H580.957V174.676Z" fill="#302C3D"/>
<path d="M595.059 188.773H609.167V174.671H595.059V188.773Z" fill="#393644"/>
<path d="M608.863 203.151H622.97V189.05H608.863V203.151Z" fill="#43404B"/>
<path d="M552.47 146.201H566.577V132.099H552.47V146.201Z" fill="#100F14"/>
<path d="M538.085 131.822H552.192V117.721H538.085V131.822Z" fill="#010101"/>
<path d="M499.873 42.5768H513.98V28.4753H499.873V42.5768Z" fill="#201D28"/>
<path d="M514.257 56.9555H528.364V42.854H514.257V56.9555Z" fill="#302C3D"/>
<path d="M528.36 71.0521H542.467V56.9507H528.36V71.0521Z" fill="#393644"/>
<path d="M542.163 85.4308H556.27V71.3294H542.163V85.4308Z" fill="#43404B"/>
<path d="M485.77 28.4801H499.877V14.3787H485.77V28.4801Z" fill="#100F14"/>
<path d="M471.386 14.1014H485.493V0H471.386V14.1014Z" fill="#010101"/>
<path d="M246.28 60.8159H260.387V46.7144H246.28V60.8159Z" fill="#201D28"/>
<path d="M260.664 75.1946H274.771V61.0931H260.664V75.1946Z" fill="#302C3D"/>
<path d="M274.767 89.2915H288.874V75.19H274.767V89.2915Z" fill="#393644"/>
<path d="M288.57 103.67H302.677V89.5687H288.57V103.67Z" fill="#601E13"/>
<path d="M232.177 46.7192H246.284V32.6178H232.177V46.7192Z" fill="#100F14"/>
<path d="M217.792 32.3405H231.899V18.2391H217.792V32.3405Z" fill="#010101"/>
<path d="M471.817 216.841H485.924V202.74H471.817V216.841Z" fill="#201D28"/>
<path d="M485.92 231.22H500.027V217.119H485.92V231.22Z" fill="#302C3D"/>
<path d="M500.304 245.317H514.411V231.215H500.304V245.317Z" fill="#393644"/>
<path d="M514.108 259.695H528.215V245.594H514.108V259.695Z" fill="#601E13"/>
<path d="M457.432 202.745H471.54V188.643H457.432V202.745Z" fill="#100F14"/>
<path d="M443.33 188.366H457.437V174.264H443.33V188.366Z" fill="#010101"/>
<path d="M443.48 117.767H457.587V103.665H443.48V117.767Z" fill="#201D28"/>
<path d="M457.582 132.146H471.69V118.044H457.582V132.146Z" fill="#302C3D"/>
<path d="M471.966 146.242H486.074V132.141H471.966V146.242Z" fill="#393644"/>
<path d="M485.77 160.621H499.877V146.519H485.77V160.621Z" fill="#43404B"/>
<path d="M429.095 103.67H443.202V89.5687H429.095V103.67Z" fill="#100F14"/>
<path d="M414.993 89.2915H429.1V75.19H414.993V89.2915Z" fill="#010101"/>
<path d="M386.805 205.833H400.912V191.731H386.805V205.833Z" fill="#201D28"/>
<path d="M401.189 220.212H415.296V206.11H401.189V220.212Z" fill="#302C3D"/>
<path d="M415.292 234.309H429.399V220.207H415.292V234.309Z" fill="#393644"/>
<path d="M429.095 248.687H443.202V234.586H429.095V248.687Z" fill="#43404B"/>
<path d="M372.702 191.736H386.809V177.635H372.702V191.736Z" fill="#100F14"/>
<path d="M358.317 177.358H372.425V163.256H358.317V177.358Z" fill="#010101"/>
<path d="M365.659 259.695H379.767V245.594H365.659V259.695Z" fill="#201D28"/>
<path d="M380.044 273.792H394.151V259.691H380.044V273.792Z" fill="#302C3D"/>
<path d="M394.147 288.171H408.254V274.069H394.147V288.171Z" fill="#393644"/>
<path d="M407.95 302.267H422.057V288.166H407.95V302.267Z" fill="#43404B"/>
<path d="M351.557 245.317H365.664V231.215H351.557V245.317Z" fill="#100F14"/>
<path d="M337.172 231.22H351.28V217.119H337.172V231.22Z" fill="#010101"/>
<path d="M189.305 252.506H203.412V238.404H189.305V252.506Z" fill="#201D28"/>
<path d="M203.69 266.603H217.797V252.501H203.69V266.603Z" fill="#302C3D"/>
<path d="M217.792 280.982H231.899V266.88H217.792V280.982Z" fill="#393644"/>
<path d="M231.596 295.078H245.703V280.977H231.596V295.078Z" fill="#43404B"/>
<path d="M175.203 238.127H189.31V224.026H175.203V238.127Z" fill="#100F14"/>
<path d="M160.818 224.031H174.926V209.929H160.818V224.031Z" fill="#010101"/>
<path d="M295.032 269.973H309.139V255.872H295.032V269.973Z" fill="#201D28"/>
<path d="M309.416 284.07H323.523V269.968H309.416V284.07Z" fill="#302C3D"/>
<path d="M323.518 298.449H337.626V284.347H323.518V298.449Z" fill="#393644"/>
<path d="M337.322 312.545H351.429V298.444H337.322V312.545Z" fill="#601E13"/>
<path d="M280.929 255.594H295.036V241.493H280.929V255.594Z" fill="#100F14"/>
<path d="M266.545 241.498H280.652V227.396H266.545V241.498Z" fill="#010101"/>
<path d="M125.72 60.8159H139.828V46.7144H125.72V60.8159Z" fill="#201D28"/>
<path d="M139.823 75.1946H153.93V61.0931H139.823V75.1946Z" fill="#302C3D"/>
<path d="M154.207 89.2915H168.315V75.19H154.207V89.2915Z" fill="#393644"/>
<path d="M168.011 103.67H182.118V89.5687H168.011V103.67Z" fill="#43404B"/>
<path d="M111.336 46.7192H125.443V32.6178H111.336V46.7192Z" fill="#100F14"/>
<path d="M97.2333 32.3405H111.341V18.2391H97.2333V32.3405Z" fill="#010101"/>
<path d="M245.831 146.201H259.938V132.099H245.831V146.201Z" fill="#201D28"/>
<path d="M259.933 160.297H274.041V146.196H259.933V160.297Z" fill="#302C3D"/>
<path d="M274.318 174.676H288.425V160.575H274.318V174.676Z" fill="#393644"/>
<path d="M288.121 188.773H302.229V174.671H288.121V188.773Z" fill="#43404B"/>
<path d="M231.446 131.822H245.554V117.721H231.446V131.822Z" fill="#100F14"/>
<path d="M217.344 117.725H231.451V103.624H217.344V117.725Z" fill="#010101"/>
<path d="M351.557 96.4807H365.664V82.3792H351.557V96.4807Z" fill="#201D28"/>
<path d="M365.659 110.577H379.767V96.4759H365.659V110.577Z" fill="#302C3D"/>
<path d="M380.044 124.956H394.151V110.855H380.044V124.956Z" fill="#393644"/>
<path d="M393.848 139.053H407.955V124.952H393.848V139.053Z" fill="#43404B"/>
<path d="M337.172 82.102H351.28V68.0006H337.172V82.102Z" fill="#100F14"/>
<path d="M323.07 68.0054H337.177V53.9039H323.07V68.0054Z" fill="#010101"/>
<path d="M620.714 120.407H634.821V106.305H620.714V120.407Z" fill="#201D28"/>
<path d="M634.816 134.786H648.924V120.684H634.816V134.786Z" fill="#302C3D"/>
<path d="M649.201 148.882H663.308V134.781H649.201V148.882Z" fill="#393644"/>
<path d="M663.005 163.261H677.112V149.159H663.005V163.261Z" fill="#43404B"/>
<path d="M606.329 106.31H620.437V92.2085H606.329V106.31Z" fill="#100F14"/>
<path d="M592.227 91.9313H606.334V77.8298H592.227V91.9313Z" fill="#010101"/>
<path d="M61.4041 540.672H75.5113V526.571H61.4041V540.672Z" fill="#201D28"/>
<path d="M75.5068 554.769H89.614V540.667H75.5068V554.769Z" fill="#302C3D"/>
<path d="M89.8914 569.148H103.999V555.046H89.8914V569.148Z" fill="#393644"/>
<path d="M103.695 583.244H117.802V569.143H103.695V583.244Z" fill="#43404B"/>
<path d="M47.0195 526.293H61.1267V512.192H47.0195V526.293Z" fill="#100F14"/>
<path d="M32.9171 512.197H47.0243V498.095H32.9171V512.197Z" fill="#010101"/>
<path d="M64.2366 462.842H78.3438V448.741H64.2366V462.842Z" fill="#201D28"/>
<path d="M78.6211 476.939H92.7283V462.837H78.6211V476.939Z" fill="#302C3D"/>
<path d="M92.7235 491.318H106.831V477.216H92.7235V491.318Z" fill="#393644"/>
<path d="M106.527 505.414H120.634V491.313H106.527V505.414Z" fill="#43404B"/>
<path d="M50.1341 448.464H64.2413V434.362H50.1341V448.464Z" fill="#100F14"/>
<path d="M35.7495 434.367H49.8567V420.265H35.7495V434.367Z" fill="#010101"/>
<path d="M196.647 647.385H210.754V633.283H196.647V647.385Z" fill="#201D28"/>
<path d="M211.032 661.763H225.139V647.662H211.032V661.763Z" fill="#302C3D"/>
<path d="M225.134 675.86H239.242V661.758H225.134V675.86Z" fill="#393644"/>
<path d="M238.938 690.239H253.045V676.137H238.938V690.239Z" fill="#601E13"/>
<path d="M182.545 633.288H196.652V619.186H182.545V633.288Z" fill="#100F14"/>
<path d="M168.16 618.909H182.267V604.808H168.16V618.909Z" fill="#010101"/>
<path d="M12.0711 640.477H26.1784V626.376H12.0711V640.477Z" fill="#201D28"/>
<path d="M26.4557 654.574H40.563V640.472H26.4557V654.574Z" fill="#302C3D"/>
<path d="M40.5581 668.953H54.6654V654.851H40.5581V668.953Z" fill="#393644"/>
<path d="M54.3615 683.049H68.4687V668.948H54.3615V683.049Z" fill="#43404B"/>
<path d="M-2.03156 626.098H12.0757V611.997H-2.03156V626.098Z" fill="#100F14"/>
<path d="M-16.4162 612.002H-2.30896V597.9H-16.4162V612.002Z" fill="#010101"/>
<path d="M-291.304 668.953H-277.197V654.851H-291.304V668.953Z" fill="#201D28"/>
<path d="M-277.201 683.049H-263.094V668.948H-277.201V683.049Z" fill="#302C3D"/>
<path d="M-262.817 697.428H-248.71V683.327H-262.817V697.428Z" fill="#393644"/>
<path d="M-249.013 711.525H-234.906V697.423H-249.013V711.525Z" fill="#43404B"/>
<path d="M-305.688 654.574H-291.581V640.472H-305.688V654.574Z" fill="#100F14"/>
<path d="M-319.791 640.477H-305.684V626.376H-319.791V640.477Z" fill="#010101"/>
<path d="M-171.924 690.239H-157.817V676.137H-171.924V690.239Z" fill="#201D28"/>
<path d="M-157.822 704.336H-143.714V690.234H-157.822V704.336Z" fill="#302C3D"/>
<path d="M-143.437 718.714H-129.33V704.613H-143.437V718.714Z" fill="#393644"/>
<path d="M-129.634 732.811H-115.526V718.709H-129.634V732.811Z" fill="#43404B"/>
<path d="M-186.309 675.86H-172.201V661.758H-186.309V675.86Z" fill="#100F14"/>
<path d="M-200.411 661.763H-186.304V647.662H-200.411V661.763Z" fill="#010101"/>
<path d="M-51.5144 697.428H-37.4071V683.327H-51.5144V697.428Z" fill="#201D28"/>
<path d="M-37.1298 711.525H-23.0226V697.423H-37.1298V711.525Z" fill="#302C3D"/>
<path d="M-23.0273 725.903H-8.9201V711.802H-23.0273V725.903Z" fill="#393644"/>
<path d="M-9.22372 740H4.88351V725.899H-9.22372V740Z" fill="#43404B"/>
<path d="M-65.6168 683.049H-51.5096V668.948H-65.6168V683.049Z" fill="#100F14"/>
<path d="M-80.0013 668.953H-65.8941V654.851H-80.0013V668.953Z" fill="#010101"/>
<path d="M146.716 690.239H160.823V676.137H146.716V690.239Z" fill="#201D28"/>
<path d="M160.818 704.336H174.926V690.234H160.818V704.336Z" fill="#302C3D"/>
<path d="M175.203 718.714H189.31V704.613H175.203V718.714Z" fill="#393644"/>
<path d="M189.006 732.811H203.113V718.709H189.006V732.811Z" fill="#43404B"/>
<path d="M132.331 675.86H146.438V661.758H132.331V675.86Z" fill="#100F14"/>
<path d="M118.229 661.763H132.336V647.662H118.229V661.763Z" fill="#010101"/>
<path d="M577.992 661.763H592.099V647.662H577.992V661.763Z" fill="#201D28"/>
<path d="M592.377 675.86H606.484V661.758H592.377V675.86Z" fill="#302C3D"/>
<path d="M606.479 690.239H620.586V676.137H606.479V690.239Z" fill="#393644"/>
<path d="M620.565 704.336H634.672V690.234H620.565V704.336Z" fill="#43404B"/>
<path d="M563.889 647.385H577.997V633.283H563.889V647.385Z" fill="#100F14"/>
<path d="M549.505 633.288H563.612V619.186H549.505V633.288Z" fill="#010101"/>
<path d="M344.514 683.049H358.622V668.948H344.514V683.049Z" fill="#201D28"/>
<path d="M358.899 697.428H373.006V683.327H358.899V697.428Z" fill="#302C3D"/>
<path d="M373.001 711.525H387.109V697.423H373.001V711.525Z" fill="#393644"/>
<path d="M386.805 725.903H400.912V711.802H386.805V725.903Z" fill="#43404B"/>
<path d="M330.412 668.953H344.519V654.851H330.412V668.953Z" fill="#100F14"/>
<path d="M316.027 654.574H330.135V640.472H316.027V654.574Z" fill="#010101"/>
<path d="M493.112 683.049H507.219V668.948H493.112V683.049Z" fill="#201D28"/>
<path d="M507.214 697.428H521.321V683.327H507.214V697.428Z" fill="#302C3D"/>
<path d="M521.599 711.525H535.706V697.423H521.599V711.525Z" fill="#393644"/>
<path d="M535.402 725.903H549.509V711.802H535.402V725.903Z" fill="#43404B"/>
<path d="M478.727 668.953H492.835V654.851H478.727V668.953Z" fill="#100F14"/>
<path d="M464.625 654.574H478.732V640.472H464.625V654.574Z" fill="#010101"/>
<path d="M-2.18109 345.122H11.9261V331.02H-2.18109V345.122Z" fill="#201D28"/>
<path d="M11.9213 359.218H26.0285V345.117H11.9213V359.218Z" fill="#302C3D"/>
<path d="M26.3059 373.597H40.4131V359.496H26.3059V373.597Z" fill="#393644"/>
<path d="M40.1095 387.694H54.2168V373.592H40.1095V387.694Z" fill="#43404B"/>
<path d="M-16.5657 330.743H-2.45847V316.642H-16.5657V330.743Z" fill="#100F14"/>
<path d="M-30.6681 316.646H-16.5609V302.545H-30.6681V316.646Z" fill="#010101"/>
<path d="M-256.056 363.361H-241.949V349.259H-256.056V363.361Z" fill="#201D28"/>
<path d="M-241.672 377.457H-227.564V363.356H-241.672V377.457Z" fill="#302C3D"/>
<path d="M-227.287 391.836H-213.18V377.735H-227.287V391.836Z" fill="#393644"/>
<path d="M-213.484 405.933H-199.376V391.832H-213.484V405.933Z" fill="#43404B"/>
<path d="M-270.159 348.982H-256.051V334.881H-270.159V348.982Z" fill="#100F14"/>
<path d="M-284.543 334.885H-270.436V320.784H-284.543V334.885Z" fill="#010101"/>
<path d="M-30.5186 519.386H-16.4114V505.285H-30.5186V519.386Z" fill="#201D28"/>
<path d="M-16.4162 533.483H-2.30899V519.381H-16.4162V533.483Z" fill="#302C3D"/>
<path d="M-2.03156 547.862H12.0757V533.76H-2.03156V547.862Z" fill="#393644"/>
<path d="M11.7721 561.958H25.8793V547.857H11.7721V561.958Z" fill="#601E13"/>
<path d="M-44.9031 505.008H-30.796V490.906H-44.9031V505.008Z" fill="#100F14"/>
<path d="M-59.0056 490.911H-44.8983V476.809H-59.0056V490.911Z" fill="#010101"/>
<path d="M-58.856 399.026H-44.7488V384.924H-58.856V399.026Z" fill="#201D28"/>
<path d="M-44.4715 413.122H-30.3642V399.021H-44.4715V413.122Z" fill="#302C3D"/>
<path d="M-30.3688 427.501H-16.2616V413.4H-30.3688V427.501Z" fill="#393644"/>
<path d="M-16.5657 441.598H-2.45847V427.496H-16.5657V441.598Z" fill="#43404B"/>
<path d="M-72.9585 384.647H-58.8513V370.545H-72.9585V384.647Z" fill="#100F14"/>
<path d="M-87.343 370.55H-73.2358V356.449H-87.343V370.55Z" fill="#010101"/>
<path d="M-115.531 508.378H-101.424V494.276H-115.531V508.378Z" fill="#201D28"/>
<path d="M-101.146 522.475H-87.0392V508.373H-101.146V522.475Z" fill="#302C3D"/>
<path d="M-87.0439 536.853H-72.9367V522.752H-87.0439V536.853Z" fill="#393644"/>
<path d="M-72.9585 550.95H-58.8513V536.849H-72.9585V550.95Z" fill="#43404B"/>
<path d="M-129.634 493.999H-115.526V479.898H-129.634V493.999Z" fill="#100F14"/>
<path d="M-144.018 479.902H-129.911V465.801H-144.018V479.902Z" fill="#010101"/>
<path d="M-143.287 565.329H-129.18V551.227H-143.287V565.329Z" fill="#201D28"/>
<path d="M-128.903 579.425H-114.795V565.324H-128.903V579.425Z" fill="#302C3D"/>
<path d="M-114.8 593.804H-100.693V579.703H-114.8V593.804Z" fill="#393644"/>
<path d="M-100.997 607.901H-86.8896V593.799H-100.997V607.901Z" fill="#43404B"/>
<path d="M-157.39 550.95H-143.283V536.849H-157.39V550.95Z" fill="#100F14"/>
<path d="M-171.774 536.853H-157.667V522.752H-171.774V536.853Z" fill="#010101"/>
<path d="M-313.03 554.769H-298.923V540.667H-313.03V554.769Z" fill="#201D28"/>
<path d="M-298.646 569.148H-284.539V555.046H-298.646V569.148Z" fill="#302C3D"/>
<path d="M-284.543 583.244H-270.436V569.143H-284.543V583.244Z" fill="#393644"/>
<path d="M-270.458 597.623H-256.35V583.522H-270.458V597.623Z" fill="#43404B"/>
<path d="M-327.133 540.672H-313.026V526.571H-327.133V540.672Z" fill="#100F14"/>
<path d="M-341.517 526.293H-327.41V512.192H-341.517V526.293Z" fill="#010101"/>
<path d="M-221.706 576.337H-207.599V562.235H-221.706V576.337Z" fill="#201D28"/>
<path d="M-207.603 590.434H-193.496V576.332H-207.603V590.434Z" fill="#302C3D"/>
<path d="M-193.219 604.813H-179.112V590.711H-193.219V604.813Z" fill="#393644"/>
<path d="M-179.415 618.909H-165.308V604.808H-179.415V618.909Z" fill="#601E13"/>
<path d="M-236.09 561.958H-221.983V547.857H-236.09V561.958Z" fill="#100F14"/>
<path d="M-250.193 547.862H-236.086V533.76H-250.193V547.862Z" fill="#010101"/>
<path d="M-346.368 437.048H-332.26V422.947H-346.368V437.048Z" fill="#201D28"/>
<path d="M-331.983 451.427H-317.876V437.326H-331.983V451.427Z" fill="#302C3D"/>
<path d="M-317.881 465.524H-303.773V451.422H-317.881V465.524Z" fill="#393644"/>
<path d="M-304.077 479.902H-289.97V465.801H-304.077V479.902Z" fill="#601E13"/>
<path d="M-360.47 422.952H-346.363V408.85H-360.47V422.952Z" fill="#100F14"/>
<path d="M-374.855 408.573H-360.747V394.471H-374.855V408.573Z" fill="#010101"/>
<path d="M-256.505 448.464H-242.397V434.362H-256.505V448.464Z" fill="#201D28"/>
<path d="M-242.402 462.842H-228.295V448.741H-242.402V462.842Z" fill="#302C3D"/>
<path d="M-228.018 476.939H-213.91V462.837H-228.018V476.939Z" fill="#393644"/>
<path d="M-214.214 491.318H-200.107V477.216H-214.214V491.318Z" fill="#43404B"/>
<path d="M-270.89 434.367H-256.782V420.265H-270.89V434.367Z" fill="#100F14"/>
<path d="M-284.992 419.988H-270.885V405.887H-284.992V419.988Z" fill="#010101"/>
<path d="M-367.513 323.553H-353.406V309.452H-367.513V323.553Z" fill="#201D28"/>
<path d="M-353.128 337.932H-339.021V323.831H-353.128V337.932Z" fill="#302C3D"/>
<path d="M-339.026 352.029H-324.919V337.927H-339.026V352.029Z" fill="#393644"/>
<path d="M-325.223 366.408H-311.115V352.306H-325.223V366.408Z" fill="#43404B"/>
<path d="M-381.615 309.457H-367.508V295.355H-381.615V309.457Z" fill="#100F14"/>
<path d="M-396 295.078H-381.893V280.977H-396V295.078Z" fill="#010101"/>
<path d="M-143.437 391.321H-129.33V377.22H-143.437V391.321Z" fill="#201D28"/>
<path d="M-129.335 405.418H-115.227V391.317H-129.335V405.418Z" fill="#302C3D"/>
<path d="M-114.95 419.797H-100.843V405.696H-114.95V419.797Z" fill="#393644"/>
<path d="M-101.146 433.894H-87.0392V419.792H-101.146V433.894Z" fill="#43404B"/>
<path d="M-157.822 376.943H-143.714V362.841H-157.822V376.943Z" fill="#100F14"/>
<path d="M-171.924 362.846H-157.817V348.745H-171.924V362.846Z" fill="#010101"/>
<path d="M118.378 422.952H132.486V408.85H118.378V422.952Z" fill="#201D28"/>
<path d="M132.481 437.048H146.588V422.947H132.481V437.048Z" fill="#302C3D"/>
<path d="M146.865 451.427H160.973V437.326H146.865V451.427Z" fill="#393644"/>
<path d="M160.669 465.524H174.776V451.422H160.669V465.524Z" fill="#601E13"/>
<path d="M103.994 408.573H118.101V394.471H103.994V408.573Z" fill="#100F14"/>
<path d="M89.8914 394.476H103.999V380.375H89.8914V394.476Z" fill="#010101"/>
<path d="M606.18 569.148H620.287V555.046H606.18V569.148Z" fill="#201D28"/>
<path d="M620.565 583.244H634.672V569.143H620.565V583.244Z" fill="#302C3D"/>
<path d="M634.667 597.623H648.774V583.522H634.667V597.623Z" fill="#393644"/>
<path d="M648.47 612.002H662.577V597.9H648.47V612.002Z" fill="#43404B"/>
<path d="M591.795 554.769H605.902V540.667H591.795V554.769Z" fill="#100F14"/>
<path d="M577.693 540.672H591.8V526.571H577.693V540.672Z" fill="#010101"/>
<path d="M566.572 462.842H580.679V448.741H566.572V462.842Z" fill="#201D28"/>
<path d="M580.957 476.939H595.064V462.837H580.957V476.939Z" fill="#302C3D"/>
<path d="M595.059 491.318H609.167V477.216H595.059V491.318Z" fill="#393644"/>
<path d="M608.863 505.414H622.97V491.313H608.863V505.414Z" fill="#43404B"/>
<path d="M552.47 448.464H566.577V434.362H552.47V448.464Z" fill="#100F14"/>
<path d="M538.085 434.367H552.192V420.265H538.085V434.367Z" fill="#010101"/>
<path d="M499.873 345.122H513.98V331.02H499.873V345.122Z" fill="#201D28"/>
<path d="M514.257 359.218H528.364V345.117H514.257V359.218Z" fill="#302C3D"/>
<path d="M528.36 373.597H542.467V359.496H528.36V373.597Z" fill="#393644"/>
<path d="M542.163 387.694H556.27V373.592H542.163V387.694Z" fill="#43404B"/>
<path d="M485.77 330.743H499.877V316.642H485.77V330.743Z" fill="#100F14"/>
<path d="M471.386 316.646H485.493V302.545H471.386V316.646Z" fill="#010101"/>
<path d="M594.91 342.075H609.017V327.973H594.91V342.075Z" fill="#201D28"/>
<path d="M609.012 356.172H623.119V342.07H609.012V356.172Z" fill="#302C3D"/>
<path d="M623.397 370.55H637.504V356.449H623.397V370.55Z" fill="#393644"/>
<path d="M637.2 384.647H651.307V370.545H637.2V384.647Z" fill="#43404B"/>
<path d="M580.525 327.696H594.632V313.595H580.525V327.696Z" fill="#100F14"/>
<path d="M566.422 313.599H580.53V299.498H566.422V313.599Z" fill="#010101"/>
<path d="M246.28 363.361H260.387V349.259H246.28V363.361Z" fill="#201D28"/>
<path d="M260.664 377.457H274.771V363.356H260.664V377.457Z" fill="#302C3D"/>
<path d="M274.767 391.836H288.874V377.735H274.767V391.836Z" fill="#393644"/>
<path d="M288.57 405.933H302.677V391.832H288.57V405.933Z" fill="#43404B"/>
<path d="M232.177 348.982H246.284V334.881H232.177V348.982Z" fill="#100F14"/>
<path d="M217.792 334.885H231.899V320.784H217.792V334.885Z" fill="#010101"/>
<path d="M493.262 519.386H507.369V505.285H493.262V519.386Z" fill="#201D28"/>
<path d="M507.646 533.483H521.753V519.381H507.646V533.483Z" fill="#302C3D"/>
<path d="M521.749 547.862H535.856V533.76H521.749V547.862Z" fill="#393644"/>
<path d="M535.552 561.958H549.659V547.857H535.552V561.958Z" fill="#43404B"/>
<path d="M479.159 505.008H493.266V490.906H479.159V505.008Z" fill="#100F14"/>
<path d="M464.774 490.911H478.882V476.809H464.774V490.911Z" fill="#010101"/>
<path d="M415.723 384.647H429.831V370.545H415.723V384.647Z" fill="#201D28"/>
<path d="M429.826 399.026H443.933V384.924H429.826V399.026Z" fill="#302C3D"/>
<path d="M444.21 413.122H458.318V399.021H444.21V413.122Z" fill="#393644"/>
<path d="M458.014 427.501H472.121V413.4H458.014V427.501Z" fill="#601E13"/>
<path d="M401.339 370.55H415.446V356.449H401.339V370.55Z" fill="#100F14"/>
<path d="M386.954 356.172H401.061V342.07H386.954V356.172Z" fill="#010101"/>
<path d="M422.335 529.664H436.442V515.562H422.335V529.664Z" fill="#201D28"/>
<path d="M436.437 543.761H450.544V529.659H436.437V543.761Z" fill="#302C3D"/>
<path d="M450.822 558.139H464.929V544.038H450.822V558.139Z" fill="#393644"/>
<path d="M464.625 572.518H478.732V558.417H464.625V572.518Z" fill="#43404B"/>
<path d="M407.95 515.285H422.057V501.184H407.95V515.285Z" fill="#100F14"/>
<path d="M393.848 501.189H407.955V487.087H393.848V501.189Z" fill="#010101"/>
<path d="M365.659 561.958H379.767V547.857H365.659V561.958Z" fill="#201D28"/>
<path d="M380.044 576.337H394.151V562.235H380.044V576.337Z" fill="#302C3D"/>
<path d="M394.147 590.434H408.254V576.332H394.147V590.434Z" fill="#393644"/>
<path d="M407.95 604.813H422.057V590.711H407.95V604.813Z" fill="#601E13"/>
<path d="M351.557 547.862H365.664V533.76H351.557V547.862Z" fill="#100F14"/>
<path d="M337.172 533.483H351.28V519.381H337.172V533.483Z" fill="#010101"/>
<path d="M189.305 554.769H203.412V540.667H189.305V554.769Z" fill="#201D28"/>
<path d="M203.69 569.148H217.797V555.046H203.69V569.148Z" fill="#302C3D"/>
<path d="M217.792 583.244H231.899V569.143H217.792V583.244Z" fill="#393644"/>
<path d="M231.596 597.623H245.703V583.522H231.596V597.623Z" fill="#43404B"/>
<path d="M175.203 540.672H189.31V526.571H175.203V540.672Z" fill="#100F14"/>
<path d="M160.818 526.293H174.926V512.192H160.818V526.293Z" fill="#010101"/>
<path d="M273.587 554.769H287.694V540.667H273.587V554.769Z" fill="#201D28"/>
<path d="M287.69 569.148H301.797V555.046H287.69V569.148Z" fill="#302C3D"/>
<path d="M302.074 583.244H316.181V569.143H302.074V583.244Z" fill="#393644"/>
<path d="M315.878 597.623H329.985V583.522H315.878V597.623Z" fill="#43404B"/>
<path d="M259.203 540.672H273.31V526.571H259.203V540.672Z" fill="#100F14"/>
<path d="M245.1 526.293H259.207V512.192H245.1V526.293Z" fill="#010101"/>
<path d="M125.72 363.361H139.828V349.259H125.72V363.361Z" fill="#201D28"/>
<path d="M139.823 377.457H153.93V363.356H139.823V377.457Z" fill="#302C3D"/>
<path d="M154.207 391.836H168.315V377.735H154.207V391.836Z" fill="#393644"/>
<path d="M168.011 405.933H182.118V391.832H168.011V405.933Z" fill="#43404B"/>
<path d="M111.336 348.982H125.443V334.881H111.336V348.982Z" fill="#100F14"/>
<path d="M97.2333 334.885H111.341V320.784H97.2333V334.885Z" fill="#010101"/>
<path d="M245.831 448.464H259.938V434.362H245.831V448.464Z" fill="#201D28"/>
<path d="M259.933 462.842H274.041V448.741H259.933V462.842Z" fill="#302C3D"/>
<path d="M274.318 476.939H288.425V462.837H274.318V476.939Z" fill="#393644"/>
<path d="M288.121 491.318H302.229V477.216H288.121V491.318Z" fill="#43404B"/>
<path d="M231.446 434.367H245.554V420.265H231.446V434.367Z" fill="#100F14"/>
<path d="M217.344 419.988H231.451V405.887H217.344V419.988Z" fill="#010101"/>
<path d="M351.557 399.026H365.664V384.924H351.557V399.026Z" fill="#201D28"/>
<path d="M365.659 413.122H379.767V399.021H365.659V413.122Z" fill="#302C3D"/>
<path d="M380.044 427.501H394.151V413.4H380.044V427.501Z" fill="#393644"/>
<path d="M393.848 441.598H407.955V427.496H393.848V441.598Z" fill="#43404B"/>
<path d="M337.172 384.647H351.28V370.545H337.172V384.647Z" fill="#100F14"/>
<path d="M323.07 370.55H337.177V356.449H323.07V370.55Z" fill="#010101"/>
<path d="M620.714 422.952H634.821V408.85H620.714V422.952Z" fill="#201D28"/>
<path d="M634.816 437.048H648.924V422.947H634.816V437.048Z" fill="#302C3D"/>
<path d="M649.201 451.427H663.308V437.326H649.201V451.427Z" fill="#393644"/>
<path d="M663.005 465.524H677.112V451.422H663.005V465.524Z" fill="#43404B"/>
<path d="M606.329 408.573H620.437V394.471H606.329V408.573Z" fill="#100F14"/>
<path d="M592.227 394.476H606.334V380.375H592.227V394.476Z" fill="#010101"/>
</g>
</svg>
