<svg width="246" height="30" viewBox="0 0 246 30" fill="none" xmlns="http://www.w3.org/2000/svg">
<path d="M0.0317383 29.986V0.388062H14.8216V7.78753H22.2165V15.187H14.8216V7.78753H7.42666V15.187H14.8216V22.5865H22.2165V15.187H29.6114V29.986H0.0317383Z" fill="#009A00"/>
<path d="M36.7045 29.986V0.388062H51.4944V22.5865H58.8893V0.388062H66.2842V29.986H36.7045Z" fill="#009A00"/>
<path d="M73.3773 22.5865V0.388062H88.1671V15.187H95.5621V0.388062H102.957V22.5865H95.5621V29.986H80.7722V22.5865H73.3773Z" fill="#009A00"/>
<path d="M134.951 29.986V0.388062H149.741V15.187H157.136V0.388062H164.531V29.986H149.741V15.187H142.346V29.986H134.951Z" fill="#009A00"/>
<path d="M179.019 7.78753V0.388062H201.204V29.986H171.624V7.78753H179.019ZM193.809 7.78753H186.414V22.5865H193.809V7.78753Z" fill="#009A00"/>
<path d="M208.372 29.986V0.388062H215.767V15.187H223.162V7.78753H230.557V15.187H237.952V0.388062H245.347V29.986H230.557V22.5865H223.162V29.986H208.372Z" fill="#009A00"/>
</svg>
