<svg width="39" height="44" viewBox="0 0 39 44" fill="none" xmlns="http://www.w3.org/2000/svg">
<path fill-rule="evenodd" clip-rule="evenodd" d="M14.4794 2.48316C11.9384 3.81136 9.80178 4.96631 9.80178 4.96631C9.80178 5.08181 15.923 8.20019 16.154 8.20019C16.2695 8.20019 16.9625 7.85371 17.771 7.44947L19.2147 6.69875L22.3331 8.31569L24.874 7.16073C28.6853 5.4283 29.0896 5.25505 29.0318 5.19731C28.9741 5.08181 27.5881 4.38883 23.8345 2.42541C22.0443 1.50144 20.3119 0.519731 19.9654 0.346487C19.6189 0.173244 19.3302 0 19.2724 0C19.2147 0 17.078 1.15496 14.4794 2.48316ZM3.27627 8.31569L0.619873 9.70164V15.7652C0.619873 19.1145 0.677621 21.8287 0.677621 21.8287C0.735369 21.8287 2.00582 21.2512 3.62276 20.5582L6.4524 19.2878V12.9355L7.83835 13.6862C8.93556 14.2637 9.97502 14.8412 11.0145 15.4187L12.8624 16.4004L13.6709 16.0539C14.1906 15.8229 14.7103 15.5919 15.1723 15.3609C15.5766 15.1877 16.5005 14.7257 17.309 14.3792C18.1175 14.0327 18.8104 13.6862 18.9259 13.6285C19.0414 13.513 17.4245 12.589 12.8047 10.2214C9.3398 8.43118 6.33691 6.98749 6.22141 6.98749C6.04817 6.92974 4.71997 7.56497 3.27627 8.31569ZM29.4938 8.71992C27.7036 9.52839 26.2022 10.2214 26.2022 10.2791C26.2022 10.3369 27.1839 10.9143 28.3966 11.6073C29.6093 12.3003 30.591 12.8778 30.591 12.9355C30.591 12.9933 29.4938 13.513 28.2233 14.0905C26.8951 14.668 23.6035 16.1694 20.8894 17.4398L11.7075 21.5977C9.39754 22.6372 7.31862 23.5611 7.08763 23.6766C2.41006 25.8133 1.08186 26.3908 0.908612 26.5063C0.735369 26.6218 0.677621 27.1992 0.677621 30.2021L0.619873 33.7825L5.3552 36.2079L8.64682 34.7064C10.437 33.898 11.9384 33.1473 11.9384 33.0895C11.9384 33.0318 11.592 32.8008 11.1877 32.6275C10.7835 32.3965 9.91727 31.9346 9.28205 31.5881C8.64682 31.2416 8.0116 30.8951 7.8961 30.8373C7.7806 30.7796 7.66511 30.7218 7.66511 30.6641C7.66511 30.6064 9.1088 29.9134 10.899 29.1049C14.3639 27.5457 16.9625 26.3908 22.6795 23.7921C25.2204 22.6371 27.7614 21.4822 30.3023 20.385C32.5544 19.4033 35.0953 18.1906 36.077 17.7863L37.7517 16.9779L37.8672 9.81713L35.4418 8.60443C34.1136 7.91145 32.9587 7.39172 32.9009 7.39172C32.8432 7.21848 31.3417 7.85371 29.4938 8.71992ZM37.1165 21.6554C36.77 21.8287 36.077 22.1752 35.5573 22.4062C35.0376 22.6372 34.1136 23.0414 33.4206 23.3879L32.2079 23.9654V27.1415C32.2079 28.8739 32.1502 30.3176 32.0924 30.2599C31.9769 30.2599 29.667 29.1049 27.4149 27.8345C25.7402 26.9682 25.6824 26.9105 25.2782 27.0837C25.0472 27.1992 23.719 27.7767 22.3331 28.4119C20.9471 29.0472 19.7344 29.5669 19.6767 29.6246C19.6189 29.6824 22.4486 31.1838 25.9712 33.0318L32.3812 36.3811L35.0953 34.9952C36.5968 34.2445 37.8672 33.4937 37.925 33.436C38.0405 33.2628 38.0405 21.3667 37.925 21.4244C37.8095 21.3667 37.463 21.4822 37.1165 21.6554ZM21.9866 35.5727C21.5246 35.7459 21.0626 35.9769 20.5429 36.2079C19.0992 36.8431 19.3879 36.8431 17.7132 35.9769C16.5583 35.3994 16.0963 35.2262 15.8653 35.3417C15.6921 35.3994 14.3639 36.0346 12.8047 36.7276C11.3032 37.4206 9.97502 37.9981 9.91728 37.9981C9.28205 37.9981 10.3215 38.6333 14.4216 40.6545L19.2147 43.0799L21.2358 42.0982C22.3331 41.5784 24.5852 40.4812 26.2022 39.6728C27.8191 38.8643 29.1473 38.2291 29.0896 38.1713C29.0896 38.1713 27.7036 37.4783 26.0867 36.6121L23.1415 35.1107L21.9866 35.5727Z" fill="white"/>
</svg>
