<svg width="41" height="34" viewBox="0 0 41 34" fill="none" xmlns="http://www.w3.org/2000/svg">
<g id="Telegram">
<path fill-rule="evenodd" clip-rule="evenodd" d="M2.66766 14.3215C13.4088 9.64389 20.6272 6.52551 24.2076 5.02406C34.4867 0.750721 36.5656 0 38.0093 0C38.2981 0 38.9911 0.0577479 39.453 0.404235C39.7995 0.692974 39.915 1.09721 39.9728 1.38595C40.0305 1.67469 40.0883 2.30991 40.0305 2.82964C39.453 8.66217 37.0854 22.8104 35.8727 29.3936C35.3529 32.1655 34.3135 33.0895 33.3318 33.205C31.1951 33.3782 29.5782 31.7613 27.4992 30.4331C24.2654 28.2964 22.4174 26.9682 19.2413 24.8893C15.6032 22.4639 17.9708 21.1935 20.0498 18.999C20.5695 18.4216 30.0401 9.81713 30.2134 9.06641C30.2134 8.95091 30.2711 8.60443 30.0401 8.43118C29.8091 8.25794 29.5204 8.31569 29.2894 8.37344C28.9429 8.43118 23.7456 11.8961 13.6975 18.6526C12.1961 19.692 10.8679 20.154 9.7129 20.154C8.3847 20.154 5.84379 19.4033 3.99586 18.768C1.68595 18.0173 -0.161981 17.6131 0.011263 16.3426C0.011263 15.7074 0.935229 15.0144 2.66766 14.3215Z" fill="white"/>
</g>
</svg>
